<?xml version="1.0" encoding="UTF-8"?>
<svg width="125px" height="15px" viewBox="0 0 125 15" version="1.1" xmlns="http://www.w3.org/2000/svg" xmlns:xlink="http://www.w3.org/1999/xlink">
    <!-- Generator: Sketch 57.1 (83088) - https://sketch.com -->
    <title>Group 14</title>
    <desc>Created with Sketch.</desc>
    <defs>
        <polygon id="path-1" points="0.184661892 0.321948529 16.879562 0.321948529 16.879562 13.2168474 0.184661892 13.2168474"></polygon>
    </defs>
    <g id="Final" stroke="none" stroke-width="1" fill="none" fill-rule="evenodd">
        <g id="Artboard-Copy" transform="translate(-120.000000, -89.000000)">
            <g id="Group-14" transform="translate(120.000000, 89.000000)">
                <polygon id="Fill-1" fill="#475C75" points="9.39365768 1 3.47526082 5.91099997 3.47526082 1 0 1 0 14 3.47526082 14 3.47526082 9.72418326 6.35760769 7.39434452 11.0356368 14 16 14 9.10691044 5.37209451 14.930689 1"></polygon>
                <g id="Group-13" transform="translate(21.000000, 0.000000)">
                    <path d="M8.55436368,10.9665579 C5.40397507,10.9665579 3.79956345,9.49413143 3.79956345,7.18209099 C3.79956345,4.88866268 5.40397507,3.39762408 8.55436368,3.39762408 C11.7242305,3.39762408 13.3286421,4.88866268 13.3286421,7.18209099 C13.3286421,9.49413143 11.7242305,10.9665579 8.55436368,10.9665579 M8.55436368,0.320418199 C3.91727958,0.320418199 0.0622879254,2.8239568 0.0622879254,7.18209099 C0.0622879254,11.5588373 3.91727958,14.0623759 8.55436368,14.0623759 C13.1918712,14.0623759 17.0464394,11.5588373 17.0464394,7.18209099 C17.0464394,2.8239568 13.1918712,0.320418199 8.55436368,0.320418199" id="Fill-2" fill="#475C75"></path>
                    <path d="M34.2181322,6.16164982 L27.467239,6.16164982 L27.467239,3.77971048 L34.1982306,3.77971048 C34.8638772,3.77971048 35.3334714,4.20778952 35.3334714,5.0196921 C35.3334714,5.79023438 34.8638772,6.16164982 34.2181322,6.16164982 M39.1097034,5.0627068 C39.1097034,2.59680607 37.4853901,0.740969669 34.2181322,0.740969669 L23.9061142,0.740969669 L23.9061142,13.641659 L27.467239,13.641659 L27.467239,9.38154871 L31.2108661,9.38154871 L34.0614597,13.641659 L39.0118889,13.641659 L35.6061663,9.14786305 C37.8042399,8.88605239 39.1097034,7.32056526 39.1097034,5.0627068" id="Fill-4" fill="#475C75"></path>
                    <path d="M71.6052421,8.19818934 L73.5073315,4.07953125 L75.314994,8.19818934 L71.6052421,8.19818934 Z M71.7733475,0.735551471 L65.2557693,13.6304504 L69.0751921,13.6304504 L70.3717633,10.8770956 L76.5493197,10.8770956 L77.782375,13.6304504 L81.9502883,13.6304504 L75.3099127,0.735551471 L71.7733475,0.735551471 Z" id="Fill-6" fill="#475C75"></path>
                    <polygon id="Fill-8" fill="#475C75" points="53.2538896 9.70275276 48.624004 0.741217831 44.5738068 0.741217831 51.5254103 13.6419072 54.8659232 13.6419072 61.8941692 0.741217831 57.9070644 0.741217831"></polygon>
                    <g id="Group-12" transform="translate(86.381623, 0.413603)">
                        <mask id="mask-2" fill="white">
                            <use xlink:href="#path-1"></use>
                        </mask>
                        <g id="Clip-11"></g>
                        <path d="M6.53455808,7.7845864 L8.43664755,3.66592831 L10.24431,7.7845864 L6.53455808,7.7845864 Z M10.2388053,0.321948529 L6.70266349,0.321948529 L0.184661892,13.2168474 L4.00450808,13.2168474 L5.30107931,10.4634926 L11.4786357,10.4634926 L12.711691,13.2168474 L16.8796043,13.2168474 L10.2388053,0.321948529 Z" id="Fill-10" fill="#475C75" mask="url(#mask-2)"></path>
                    </g>
                </g>
            </g>
        </g>
    </g>
</svg>